<svg width="128" height="67" viewBox="0 0 128 67" fill="none" xmlns="http://www.w3.org/2000/svg">
<g clip-path="url(#clip0_1364_201)">
<path d="M11.7089 46.3263C9.87069 46.3263 8.20879 46.0122 6.72315 45.3841C5.26269 44.756 4.1044 43.8515 3.24827 42.6706C2.39214 41.4897 1.95148 40.0953 1.9263 38.4873H7.59187C7.66741 39.5676 8.04512 40.4219 8.72499 41.05C9.43004 41.6781 10.3869 41.9922 11.5955 41.9922C12.8294 41.9922 13.7988 41.7033 14.5039 41.1254C15.2089 40.5224 15.5614 39.7435 15.5614 38.7888C15.5614 38.0099 15.3222 37.3692 14.8438 36.8667C14.3654 36.3642 13.7611 35.9748 13.0308 35.6984C12.3258 35.3969 11.3437 35.0703 10.0847 34.7185C8.37246 34.216 6.97496 33.7261 5.8922 33.2487C4.83463 32.7462 3.91555 32.005 3.13496 31.0251C2.37955 30.0201 2.00184 28.6885 2.00184 27.0303C2.00184 25.4725 2.39214 24.1158 3.17273 22.96C3.95332 21.8043 5.04866 20.9249 6.45876 20.3219C7.86886 19.6938 9.4804 19.3797 11.2934 19.3797C14.0129 19.3797 16.2161 20.0455 17.9032 21.3771C19.6155 22.6836 20.5597 24.5178 20.736 26.8795H14.9193C14.869 25.975 14.4787 25.2338 13.7485 24.656C13.0434 24.053 12.0992 23.7515 10.9157 23.7515C9.88328 23.7515 9.05233 24.0153 8.42282 24.5429C7.8185 25.0705 7.51633 25.8368 7.51633 26.8418C7.51633 27.5453 7.74296 28.1358 8.1962 28.6131C8.67463 29.0654 9.25378 29.4423 9.93364 29.7438C10.6387 30.0201 11.6207 30.3468 12.8797 30.7236C14.592 31.2261 15.9895 31.7286 17.0723 32.2311C18.155 32.7336 19.0867 33.4874 19.8673 34.4924C20.6479 35.4974 21.0382 36.8165 21.0382 38.4496C21.0382 39.8566 20.6731 41.1631 19.9428 42.3691C19.2126 43.5751 18.1424 44.5424 16.7323 45.271C15.3222 45.9745 13.6477 46.3263 11.7089 46.3263ZM38.3513 24.8821C39.9377 24.8821 41.3478 25.2338 42.5816 25.9373C43.8155 26.6157 44.7723 27.6333 45.452 28.99C46.157 30.3216 46.5095 31.9296 46.5095 33.814V46.0625H41.2219V34.5301C41.2219 32.8718 40.8064 31.603 39.9755 30.7236C39.1445 29.8191 38.0114 29.3669 36.5761 29.3669C35.1156 29.3669 33.9574 29.8191 33.1012 30.7236C32.2701 31.603 31.8546 32.8718 31.8546 34.5301V46.0625H26.5667V18.1737H31.8546V27.784C32.5347 26.8795 33.4412 26.176 34.5743 25.6735C35.7072 25.1459 36.9662 24.8821 38.3513 24.8821ZM61.7739 46.4016C59.7594 46.4016 57.9464 45.962 56.3349 45.0826C54.7234 44.1781 53.4518 42.9093 52.5201 41.2761C51.6136 39.643 51.1603 37.7586 51.1603 35.623C51.1603 33.4874 51.6262 31.603 52.5579 29.9699C53.5147 28.3368 54.8115 27.0805 56.4482 26.2011C58.0849 25.2966 59.9105 24.8444 61.9249 24.8444C63.9394 24.8444 65.7649 25.2966 67.4017 26.2011C69.0384 27.0805 70.3226 28.3368 71.2542 29.9699C72.2111 31.603 72.6895 33.4874 72.6895 35.623C72.6895 37.7586 72.1985 39.643 71.2165 41.2761C70.2596 42.9093 68.9502 44.1781 67.2883 45.0826C65.6516 45.962 63.8135 46.4016 61.7739 46.4016ZM61.7739 41.8038C62.7307 41.8038 63.6246 41.5776 64.4556 41.1254C65.3117 40.648 65.9916 39.9445 66.4952 39.0149C66.9988 38.0853 67.2506 36.9546 67.2506 35.623C67.2506 33.6381 66.7218 32.1181 65.6642 31.0628C64.6318 29.9825 63.3602 29.4423 61.8494 29.4423C60.3386 29.4423 59.067 29.9825 58.0346 31.0628C57.0274 32.1181 56.5238 33.6381 56.5238 35.623C56.5238 37.6079 57.0148 39.1405 57.9968 40.2209C59.004 41.2761 60.263 41.8038 61.7739 41.8038ZM96.9646 35.1708C96.9646 35.9245 96.9143 36.6029 96.8135 37.2059H81.5165C81.6424 38.7134 82.1712 39.8943 83.1028 40.7485C84.0345 41.6028 85.1802 42.0299 86.54 42.0299C88.504 42.0299 89.9015 41.1882 90.7325 39.5048H96.4358C95.8315 41.5148 94.6732 43.1731 92.9609 44.4796C91.2487 45.761 89.1461 46.4016 86.6533 46.4016C84.6388 46.4016 82.8259 45.962 81.2143 45.0826C79.628 44.1781 78.3815 42.9093 77.475 41.2761C76.5937 39.643 76.1531 37.7586 76.1531 35.623C76.1531 33.4623 76.5937 31.5653 77.475 29.9322C78.3564 28.2991 79.5902 27.0428 81.1766 26.1635C82.7629 25.2841 84.5885 24.8444 86.6533 24.8444C88.6425 24.8444 90.4177 25.2715 91.9789 26.1258C93.5653 26.98 94.7865 28.1986 95.6427 29.7815C96.524 31.3392 96.9646 33.1356 96.9646 35.1708ZM91.4879 33.6633C91.4627 32.3065 90.9717 31.2261 90.0149 30.4221C89.058 29.593 87.8871 29.1785 86.5022 29.1785C85.1928 29.1785 84.0849 29.5805 83.1784 30.3845C82.2971 31.1633 81.7557 32.2563 81.5543 33.6633H91.4879ZM109.776 46.4016C108.063 46.4016 106.527 46.1001 105.168 45.4971C103.808 44.869 102.725 44.0273 101.919 42.9721C101.139 41.9168 100.711 40.7485 100.635 39.4671H105.961C106.062 40.2711 106.452 40.937 107.132 41.4646C107.837 41.9922 108.706 42.256 109.738 42.256C110.745 42.256 111.526 42.055 112.08 41.653C112.659 41.251 112.948 40.736 112.948 40.1078C112.948 39.4295 112.596 38.927 111.891 38.6003C111.211 38.2486 110.116 37.8717 108.605 37.4697C107.044 37.0928 105.759 36.7034 104.752 36.3014C103.77 35.8994 102.914 35.2838 102.184 34.4547C101.479 33.6256 101.126 32.5075 101.126 31.1005C101.126 29.9448 101.454 28.8895 102.108 27.9348C102.788 26.98 103.745 26.2263 104.979 25.6735C106.238 25.1208 107.711 24.8444 109.398 24.8444C111.891 24.8444 113.88 25.4725 115.366 26.7288C116.851 27.9599 117.67 29.6307 117.821 31.7412H112.76C112.684 30.9121 112.332 30.2588 111.702 29.7815C111.098 29.279 110.279 29.0277 109.247 29.0277C108.29 29.0277 107.547 29.2036 107.018 29.5553C106.515 29.9071 106.263 30.397 106.263 31.0251C106.263 31.7286 106.616 32.2688 107.321 32.6457C108.026 32.9975 109.121 33.3618 110.607 33.7386C112.118 34.1155 113.364 34.505 114.346 34.907C115.328 35.309 116.172 35.9371 116.877 36.7913C117.607 37.6205 117.985 38.726 118.01 40.1078C118.01 41.3138 117.67 42.3942 116.99 43.349C116.335 44.3037 115.378 45.0575 114.119 45.6102C112.886 46.1378 111.438 46.4016 109.776 46.4016Z" fill="#00BCDA"/>
<path d="M123.803 25.125H121.705V46.0625H123.803V25.125Z" fill="#00BCDA"/>
<path d="M128 25.125H125.902V46.0625H128V25.125Z" fill="#00BCDA"/>
</g>
<defs>
<clipPath id="clip0_1364_201">
<rect width="128" height="67" fill="white"/>
</clipPath>
</defs>
</svg>
