<svg width="28" height="28" viewBox="0 0 28 28" fill="none" xmlns="http://www.w3.org/2000/svg">
<g clip-path="url(#clip0_1369_206)">
<path d="M21 2.625C21 1.17578 19.6562 0 18 0C16.3438 0 15 1.17578 15 2.625C15 4.07422 16.3438 5.25 18 5.25C19.6562 5.25 21 4.07422 21 2.625ZM8.85625 9.59766C9.475 9.05625 10.3187 8.75 11.2 8.75C11.3187 8.75 11.4375 8.75547 11.55 8.76641L9.6 13.8906C9.01875 15.4219 9.70625 17.1063 11.275 17.9648L16.6625 20.9125L15.075 25.7688C14.7687 26.6984 15.3875 27.6664 16.45 27.9344C17.5125 28.2023 18.6187 27.6609 18.925 26.7312L20.7188 21.2406C21.0875 20.1141 20.5562 18.9109 19.425 18.293L15.875 16.3516L17.8062 11.8453L18.125 12.518C19.0625 14.4758 21.2438 15.75 23.6688 15.75H25C26.1063 15.75 27 14.968 27 14C27 13.032 26.1063 12.25 25 12.25H23.6688C22.8625 12.25 22.1313 11.8234 21.825 11.1727L21.4312 10.3523C20.5187 8.43281 18.675 6.96719 16.4 6.35469L13.3562 5.53437C12.6625 5.34844 11.9375 5.25 11.2063 5.25C9.26875 5.25 7.40625 5.92266 6.0375 7.12578L4.5875 8.38906C3.80625 9.07266 3.80625 10.1828 4.5875 10.8664C5.36875 11.55 6.6375 11.55 7.41875 10.8664L8.8625 9.60313L8.85625 9.59766ZM6.7 19.25H3C1.89375 19.25 1 20.032 1 21C1 21.968 1.89375 22.75 3 22.75H7.35C8.5375 22.75 9.6125 22.1375 10.0938 21.1914L10.8125 19.775L10.2188 19.4469C9.125 18.8508 8.3125 17.9813 7.85 16.9914L6.7 19.25Z" fill="#00BCDA"/>
</g>
<defs>
<clipPath id="clip0_1369_206">
<rect width="28" height="28" fill="white"/>
</clipPath>
</defs>
</svg>
